<svg width="24" height="24" viewBox="0 0 24 24" fill="none" xmlns="http://www.w3.org/2000/svg">
<path fill-rule="evenodd" clip-rule="evenodd" d="M10.3092 2.24999H13.6907C13.9071 2.24985 14.0956 2.24973 14.2736 2.27816C14.9769 2.39046 15.5855 2.82912 15.9145 3.46081C15.9977 3.6207 16.0572 3.79958 16.1255 4.00491L16.2371 4.33981C16.256 4.3965 16.2614 4.41255 16.266 4.42519C16.4411 4.9093 16.8952 5.23656 17.4098 5.24961C17.4233 5.24995 17.4399 5.25001 17.5 5.25001H20.5C20.9142 5.25001 21.25 5.58579 21.25 6.00001C21.25 6.41422 20.9142 6.75001 20.5 6.75001H3.49988C3.08566 6.75001 2.74988 6.41422 2.74988 6.00001C2.74988 5.58579 3.08566 5.25001 3.49988 5.25001H6.49996C6.56001 5.25001 6.57658 5.24995 6.59011 5.24961C7.10476 5.23656 7.55878 4.90932 7.7339 4.42521C7.73851 4.41248 7.7438 4.39678 7.76279 4.33981L7.8744 4.00493C7.94269 3.79961 8.0022 3.6207 8.08546 3.46081C8.41441 2.82912 9.02301 2.39046 9.72631 2.27816C9.90433 2.24973 10.0928 2.24985 10.3092 2.24999ZM9.00803 5.25001C9.05954 5.14898 9.10519 5.04401 9.14445 4.93545C9.15638 4.90248 9.16807 4.86739 9.1831 4.82231L9.2829 4.52289C9.37407 4.24938 9.39507 4.1936 9.41589 4.15361C9.52554 3.94304 9.7284 3.79683 9.96284 3.75939C10.0074 3.75228 10.0669 3.75001 10.3552 3.75001H13.6447C13.933 3.75001 13.9926 3.75228 14.0371 3.75939C14.2715 3.79683 14.4744 3.94304 14.584 4.15361C14.6049 4.1936 14.6258 4.24937 14.717 4.52289L14.8168 4.82213L14.8555 4.93547C14.8947 5.04402 14.9404 5.14899 14.9919 5.25001H9.00803Z" fill="white"/>
<path d="M5.91497 8.45012C5.88741 8.03682 5.53004 7.72412 5.11674 7.75167C4.70344 7.77922 4.39074 8.1366 4.41829 8.5499L4.88174 15.5016C4.96723 16.7844 5.0363 17.8205 5.19827 18.6336C5.36667 19.4789 5.65309 20.185 6.24468 20.7384C6.83628 21.2919 7.55982 21.5307 8.41447 21.6425C9.2365 21.75 10.2749 21.75 11.5605 21.75H12.4394C13.7249 21.75 14.7634 21.75 15.5855 21.6425C16.4401 21.5307 17.1636 21.2919 17.7552 20.7384C18.3468 20.185 18.6333 19.4789 18.8017 18.6336C18.9636 17.8205 19.0327 16.7844 19.1182 15.5016L19.5816 8.5499C19.6092 8.1366 19.2965 7.77922 18.8832 7.75167C18.4699 7.72412 18.1125 8.03682 18.085 8.45012L17.625 15.3492C17.5352 16.6971 17.4711 17.6349 17.3306 18.3405C17.1942 19.025 17.0039 19.3873 16.7305 19.6431C16.4571 19.8989 16.0829 20.0647 15.3909 20.1552C14.6775 20.2485 13.7375 20.25 12.3866 20.25H11.6133C10.2624 20.25 9.32243 20.2485 8.60903 20.1552C7.91703 20.0647 7.54287 19.8989 7.26946 19.6431C6.99604 19.3873 6.80571 19.025 6.66936 18.3405C6.52879 17.6349 6.46477 16.6971 6.37491 15.3492L5.91497 8.45012Z" fill="white"/>
<path d="M9.42534 10.2537C9.8375 10.2125 10.205 10.5132 10.2462 10.9254L10.7462 15.9254C10.7875 16.3375 10.4868 16.7051 10.0746 16.7463C9.66244 16.7875 9.29491 16.4868 9.25369 16.0746L8.75369 11.0746C8.71248 10.6625 9.01318 10.2949 9.42534 10.2537Z" fill="white"/>
<path d="M14.5746 10.2537C14.9868 10.2949 15.2875 10.6625 15.2462 11.0746L14.7462 16.0746C14.705 16.4868 14.3375 16.7875 13.9253 16.7463C13.5132 16.7051 13.2125 16.3375 13.2537 15.9254L13.7537 10.9254C13.7949 10.5132 14.1624 10.2125 14.5746 10.2537Z" fill="white"/>
</svg>
