<svg width="42" height="42" viewBox="0 0 42 42" fill="none" xmlns="http://www.w3.org/2000/svg">
<rect width="42" height="42" rx="14" fill="#343641"/>
<path d="M24.6668 15.5C24.6668 14.5275 24.2805 13.5949 23.5928 12.9073C22.9052 12.2196 21.9726 11.8333 21.0002 11.8333C20.0277 11.8333 19.0951 12.2196 18.4075 12.9073C17.7199 13.5949 17.3335 14.5275 17.3335 15.5V17.3333C17.3335 18.3058 17.7199 19.2384 18.4075 19.9261C19.0951 20.6137 20.0277 21 21.0002 21C21.9726 21 22.9052 20.6137 23.5928 19.9261C24.2805 19.2384 24.6668 18.3058 24.6668 17.3333V15.5Z" stroke="white" stroke-width="2" stroke-miterlimit="10"/>
<path d="M12.75 30.1667C14.1433 26.39 17.3333 23.75 21 23.75" stroke="white" stroke-width="2" stroke-miterlimit="10"/>
<path d="M29.25 29.25L23.75 23.75" stroke="white" stroke-width="2" stroke-miterlimit="10"/>
<path d="M23.75 29.25L29.25 23.75" stroke="white" stroke-width="2" stroke-miterlimit="10"/>
</svg>
