<svg width="98" height="98" viewBox="0 0 98 98" fill="none" xmlns="http://www.w3.org/2000/svg">
<path d="M71.592 22.923C66.023 10.482 54.065 3.73898 44.526 0.195984C19.58 2.35298 0 23.273 0 48.779C0 74.956 20.621 96.311 46.504 97.501C79.605 87.035 80.812 43.515 71.592 22.923Z" fill="#FFC700"/>
<path d="M48.7799 0C47.3459 0 45.9289 0.0749991 44.5259 0.195999C54.0659 3.739 66.0229 10.482 71.5919 22.923C80.8119 43.516 79.6049 87.035 46.5039 97.501C47.2589 97.536 48.0159 97.558 48.7789 97.558C75.7189 97.558 97.5579 75.719 97.5579 48.779C97.5589 21.839 75.7189 0 48.7799 0Z" fill="#EFBC05"/>
<path d="M20.289 13.544C20.289 13.544 32.535 4.87799 38.908 4.87799C45.28 4.87799 48.865 5.76199 49.106 12.837C49.348 19.911 39.679 22.564 34.698 22.034C29.716 21.503 9.79997 22.918 20.289 13.544Z" fill="#FFDF97"/>
<path d="M21.7381 53.962C25.2771 53.962 28.1461 51.093 28.1461 47.554C28.1461 44.015 25.2771 41.146 21.7381 41.146C18.199 41.146 15.3301 44.015 15.3301 47.554C15.3301 51.093 18.199 53.962 21.7381 53.962Z" fill="#725B27"/>
<path d="M76.535 53.962C80.074 53.962 82.943 51.093 82.943 47.554C82.943 44.015 80.074 41.146 76.535 41.146C72.9959 41.146 70.127 44.015 70.127 47.554C70.127 51.093 72.9959 53.962 76.535 53.962Z" fill="#725B27"/>
<path d="M81.495 36.044L74.007 31.721C73.112 31.204 72.806 30.06 73.322 29.165C73.839 28.27 74.983 27.964 75.878 28.48L83.366 32.803C84.261 33.32 84.567 34.464 84.051 35.359C83.534 36.254 82.39 36.56 81.495 36.044Z" fill="#725B27"/>
<path d="M16.7251 36.044L24.2131 31.721C25.1081 31.204 25.4141 30.06 24.8981 29.165C24.3811 28.27 23.2371 27.964 22.3421 28.48L14.8541 32.803C13.9591 33.32 13.6531 34.464 14.1691 35.359C14.6861 36.254 15.8301 36.56 16.7251 36.044Z" fill="#725B27"/>
<path d="M62.0082 61.606C61.6952 58.671 59.6812 56.622 57.8612 54.463C57.5622 54.108 55.4852 52.661 54.5332 52.422C49.1562 51.074 42.9362 50.957 39.4482 56.07C36.1832 60.857 38.3292 67.226 43.2872 69.867C47.7612 72.25 54.6782 72.495 58.7432 69.203C61.0182 67.362 62.3212 64.538 62.0082 61.606Z" fill="#725B27"/>
<path d="M43.7402 70.096C45.5062 70.883 46.9312 71.363 49.2152 71.586C52.5762 71.914 55.1742 71.666 58.3172 69.528C57.4172 68.847 55.2312 67.397 51.8982 67.134C47.9272 66.822 44.9412 68.897 43.7402 70.096Z" fill="#C6A08D"/>
</svg>
