<svg width="98" height="98" viewBox="0 0 98 98" fill="none" xmlns="http://www.w3.org/2000/svg">
<path d="M71.592 22.922C66.023 10.482 54.065 3.73801 44.526 0.195007C19.58 2.35201 0 23.272 0 48.778C0 74.955 20.621 96.31 46.504 97.499C79.605 87.035 80.812 43.515 71.592 22.922Z" fill="#FFC700"/>
<path d="M48.7799 0C47.3459 0 45.9289 0.0749991 44.5259 0.195999C54.0659 3.739 66.0229 10.482 71.5919 22.923C80.8109 43.516 79.6049 87.035 46.5039 97.501C47.2589 97.536 48.0159 97.559 48.7789 97.559C75.7189 97.559 97.5579 75.72 97.5579 48.78C97.5589 21.839 75.7189 0 48.7799 0Z" fill="#EFBC05"/>
<path d="M20.289 13.544C20.289 13.544 32.535 4.87799 38.908 4.87799C45.28 4.87799 48.864 5.76199 49.106 12.837C49.348 19.912 39.679 22.564 34.697 22.034C29.716 21.503 9.79998 22.917 20.289 13.544Z" fill="#FFDF97"/>
<path d="M31.2548 50.159C31.2678 49.972 31.2828 49.787 31.2828 49.597C31.2828 45.131 27.6488 41.511 23.1658 41.511C18.6828 41.511 15.0488 45.131 15.0488 49.597C15.0488 50.043 15.0948 50.477 15.1638 50.903C16.0338 50.199 21.9728 45.858 31.2548 50.159Z" fill="#725B27"/>
<path d="M83.3969 50.159C83.4099 49.972 83.4249 49.787 83.4249 49.597C83.4249 45.131 79.7909 41.511 75.3079 41.511C70.8249 41.511 67.1909 45.131 67.1909 49.597C67.1909 50.043 67.2369 50.477 67.3059 50.903C68.1759 50.199 74.1149 45.858 83.3969 50.159Z" fill="#725B27"/>
<path d="M45.7251 67.621C47.2771 68.121 48.8291 68.408 50.1981 68.454C52.6851 68.538 56.0891 67.974 58.9241 66.635C58.0621 65.983 56.3651 65.138 53.1731 64.886C49.3701 64.587 46.8751 66.473 45.7251 67.621Z" fill="#C6A08D"/>
<path d="M64.0951 58.446C63.5861 55.539 61.1651 54.938 58.5041 55.39C56.3121 55.762 54.3831 56.847 52.2641 57.451C52.2421 57.457 52.2211 57.463 52.2001 57.469C49.1991 58.313 45.9071 57.44 43.7001 55.237C43.0721 54.61 42.3531 54.092 41.4361 53.823C39.1121 53.14 37.0611 54.543 36.7071 56.904C35.9001 62.292 40.8181 66.043 45.7251 67.622C46.8751 66.474 49.3701 64.587 53.1731 64.888C56.3651 65.14 58.0621 65.985 58.9241 66.637C62.2521 65.064 64.7921 62.42 64.0951 58.446Z" fill="#725B27"/>
</svg>
