<svg width="98" height="98" viewBox="0 0 98 98" fill="none" xmlns="http://www.w3.org/2000/svg">
<path d="M71.591 22.923C66.022 10.482 54.065 3.73904 44.525 0.196045C19.579 2.35304 0 23.2731 0 48.7791C0 74.9561 20.621 96.311 46.504 97.5C79.604 87.035 80.811 43.516 71.591 22.923Z" fill="#FFC700"/>
<path d="M48.7789 0C47.3449 0 45.9279 0.0750144 44.5249 0.196014C54.0649 3.73901 66.0219 10.482 71.5909 22.923C80.8109 43.516 79.6039 87.035 46.5029 97.501C47.2579 97.536 48.0149 97.559 48.7779 97.559C75.7179 97.559 97.5569 75.72 97.5569 48.78C97.5579 21.839 75.7189 0 48.7789 0Z" fill="#EFBC05"/>
<path d="M20.288 13.544C20.288 13.544 32.534 4.87805 38.907 4.87805C45.279 4.87805 48.864 5.76204 49.105 12.837C49.347 19.911 39.678 22.5641 34.697 22.0341C29.715 21.5031 9.79899 22.918 20.288 13.544Z" fill="#FFDF97"/>
<path d="M65.3289 56.424C65.3289 56.424 45.9039 50.144 30.5679 56.424C33.4889 50.776 54.3749 47.661 65.3289 56.424Z" fill="#725B27"/>
<path d="M66.9961 42.173C66.9421 42.353 66.8851 42.533 66.8431 42.719C65.8521 47.109 68.6211 51.473 73.0271 52.468C77.4341 53.463 81.8091 50.711 82.8001 46.321C82.8991 45.883 82.9501 45.446 82.9771 45.012C81.9651 45.511 75.1641 48.46 66.9961 42.173Z" fill="#725B27"/>
<path d="M12.646 46.011C12.68 46.196 12.711 46.382 12.758 46.567C13.872 50.927 18.323 53.555 22.699 52.437C27.076 51.319 29.721 46.878 28.607 42.518C28.496 42.083 28.343 41.671 28.169 41.272C27.496 42.176 22.781 47.896 12.646 46.011Z" fill="#725B27"/>
</svg>
