<svg width="98" height="98" viewBox="0 0 98 98" fill="none" xmlns="http://www.w3.org/2000/svg">
<path d="M71.591 22.923C66.022 10.482 54.064 3.73898 44.525 0.195984C19.579 2.35298 0 23.273 0 48.779C0 74.956 20.621 96.311 46.504 97.5C79.604 87.035 80.81 43.516 71.591 22.923Z" fill="#FFC700"/>
<path d="M48.7779 0C47.3439 0 45.9269 0.075003 44.5239 0.196003C54.0639 3.739 66.0209 10.482 71.5899 22.923C80.8089 43.516 79.6029 87.035 46.5019 97.501C47.2569 97.536 48.0139 97.559 48.7769 97.559C75.7169 97.559 97.5559 75.72 97.5559 48.78C97.5569 21.839 75.7179 0 48.7779 0Z" fill="#EFBC05"/>
<path d="M47.2349 62.098C48.7019 62.57 50.1689 62.842 51.4619 62.885C53.8119 62.965 57.0299 62.432 59.7099 61.166C58.8959 60.55 57.2909 59.751 54.2739 59.513C50.6809 59.229 48.3219 61.012 47.2349 62.098Z" fill="#C6A08D"/>
<path d="M64.5981 53.425C64.1161 50.678 61.8281 50.109 59.3141 50.536C57.2431 50.888 55.4191 51.913 53.4161 52.484C53.3951 52.49 53.3761 52.495 53.3551 52.501C50.5181 53.299 47.4071 52.474 45.3211 50.391C44.7271 49.799 44.0481 49.309 43.1811 49.054C40.9841 48.408 39.0461 49.735 38.7121 51.966C37.9491 57.058 42.5971 60.604 47.2351 62.096C48.3221 61.01 50.6801 59.228 54.2751 59.511C57.2921 59.749 58.8961 60.548 59.7111 61.164C62.8561 59.68 65.2561 57.181 64.5981 53.425Z" fill="#725B27"/>
<path d="M17.2791 33.09C12.6241 32.883 10.9641 36.202 11.7941 41.39C12.6241 46.577 20.4881 53.839 24.0251 54.047C24.0591 54.049 24.0961 54.04 24.1311 54.041L23.8491 39.642C23.2681 38.071 21.1731 33.263 17.2791 33.09Z" fill="#FF6F8E"/>
<path d="M30.4691 33.08C25.6971 32.052 24.0261 40.144 24.0261 40.144C24.0261 40.144 23.9641 39.948 23.8501 39.641L24.1321 54.04C27.6641 54.115 32.6411 47.658 33.7881 43.563C35.2411 38.381 35.2411 34.109 30.4691 33.08Z" fill="#FF577C"/>
<path d="M71.6419 33.09C66.9869 32.883 65.3269 36.202 66.1569 41.39C66.9869 46.577 74.8509 53.839 78.3879 54.047C78.4219 54.049 78.4589 54.04 78.4939 54.041L78.2119 39.642C77.6309 38.071 75.5359 33.263 71.6419 33.09Z" fill="#FF6F8E"/>
<path d="M84.8309 33.08C80.0589 32.052 78.3879 40.144 78.3879 40.144C78.3879 40.144 78.3259 39.948 78.2119 39.641L78.4939 54.04C82.0259 54.115 87.0029 47.658 88.1499 43.563C89.6039 38.381 89.6039 34.109 84.8309 33.08Z" fill="#FF577C"/>
<path d="M20.2871 13.544C20.2871 13.544 32.5331 4.87799 38.9061 4.87799C45.2781 4.87799 48.8621 5.76199 49.1041 12.837C49.3461 19.911 39.6771 22.564 34.6961 22.034C29.7141 21.503 9.79912 22.918 20.2871 13.544Z" fill="#FFDF97"/>
</svg>
