<svg width="98" height="98" viewBox="0 0 98 98" fill="none" xmlns="http://www.w3.org/2000/svg">
<path d="M71.591 22.923C66.022 10.483 54.065 3.73898 44.525 0.195984C19.579 2.35298 0 23.273 0 48.779C0 74.956 20.621 96.311 46.504 97.501C79.604 87.035 80.811 43.516 71.591 22.923Z" fill="#FFC700"/>
<path d="M48.7789 0C47.3449 0 45.9289 0.075003 44.5259 0.196003C54.0659 3.739 66.0229 10.482 71.5919 22.923C80.8119 43.516 79.6049 87.035 46.5039 97.501C47.2589 97.536 48.0159 97.558 48.7789 97.558C75.7189 97.558 97.5579 75.719 97.5579 48.779C97.5579 21.839 75.7189 0 48.7789 0Z" fill="#EFBC05"/>
<path d="M20.288 13.544C20.288 13.544 32.534 4.87799 38.907 4.87799C45.279 4.87799 48.864 5.76199 49.105 12.837C49.347 19.911 39.678 22.564 34.696 22.034C29.715 21.503 9.799 22.918 20.288 13.544Z" fill="#FFDF97"/>
<path d="M31.9678 58.418C31.9678 58.418 52.4528 65.041 68.6248 58.418C65.5448 64.375 43.5198 67.66 31.9678 58.418Z" fill="#725B27"/>
<path d="M31.9378 51.86C31.9518 51.662 31.9678 51.464 31.9678 51.263C31.9678 46.518 28.1058 42.671 23.3428 42.671C18.5788 42.671 14.7168 46.518 14.7168 51.263C14.7168 51.736 14.7658 52.198 14.8388 52.65C15.7638 51.902 22.0748 47.289 31.9378 51.86Z" fill="#725B27"/>
<path d="M87.344 51.86C87.358 51.662 87.374 51.464 87.374 51.263C87.374 46.518 83.512 42.671 78.749 42.671C73.985 42.671 70.124 46.518 70.124 51.263C70.124 51.736 70.173 52.198 70.246 52.65C71.17 51.902 77.482 47.289 87.344 51.86Z" fill="#725B27"/>
</svg>
