<svg width="42" height="42" viewBox="0 0 42 42" fill="none" xmlns="http://www.w3.org/2000/svg">
<rect width="42" height="42" rx="14" fill="#343641"/>
<path d="M23.2646 17.2583L29.7461 10.7769L30.4365 11.4663L31.1309 12.1616L27.9141 15.3784L24.6504 18.6431H23.2646V17.2583ZM32.875 12.1958C32.875 12.1284 32.8661 12.0533 32.8525 11.9849C32.8393 11.9179 32.8198 11.8486 32.793 11.7983L32.792 11.7964C32.7806 11.7762 32.7585 11.7499 32.7373 11.7251C32.7135 11.6973 32.6824 11.6617 32.6445 11.6206C32.5686 11.5381 32.4651 11.4296 32.3438 11.3042C32.101 11.0532 31.7842 10.7329 31.4658 10.4155C31.1476 10.0982 30.827 9.78337 30.5762 9.54248C30.4508 9.42205 30.342 9.31957 30.2598 9.24463C30.2189 9.20734 30.1839 9.17616 30.1562 9.15283C30.1322 9.13254 30.1046 9.11028 30.083 9.09912L30.082 9.09814C30.0384 9.07633 29.975 9.06069 29.9141 9.05029C29.8504 9.03946 29.7782 9.03273 29.7119 9.03271H29.4551L29.4258 9.06201L25.707 12.7759C24.6283 13.8546 23.6898 14.8025 23.0156 15.4917C22.6787 15.8361 22.4073 16.116 22.2178 16.3159C22.1231 16.4158 22.0477 16.4958 21.9951 16.5542C21.9689 16.5833 21.9483 16.6085 21.9326 16.6274C21.9248 16.6369 21.917 16.6459 21.9111 16.6538L21.8926 16.6851C21.8564 16.7672 21.8386 16.8999 21.8281 17.1196C21.8174 17.3451 21.8135 17.6794 21.8135 18.1772C21.8135 18.6502 21.8083 19.0089 21.8301 19.2739C21.8517 19.5369 21.9013 19.7367 22.0361 19.8716C22.171 20.0064 22.3708 20.056 22.6338 20.0776C22.8989 20.0994 23.2575 20.0942 23.7305 20.0942C24.2283 20.0942 24.5627 20.0904 24.7881 20.0796C25.0078 20.0691 25.1405 20.0513 25.2227 20.0151L25.2539 19.9966C25.2619 19.9907 25.2708 19.9829 25.2803 19.9751C25.2993 19.9594 25.3244 19.9388 25.3535 19.9126C25.4119 19.86 25.4919 19.7846 25.5918 19.6899C25.7917 19.5004 26.0716 19.229 26.416 18.8921C27.1052 18.2179 28.0531 17.2794 29.1318 16.2007L32.8457 12.4819L32.875 12.4526V12.1958Z" fill="white" stroke="white" stroke-width="0.2"/>
<path d="M17.7261 32.0996C17.8005 32.0996 17.8721 32.0771 17.9614 32.0449C17.9888 32.0354 18.0305 32.0123 18.0718 31.9863C18.1176 31.9575 18.1773 31.9177 18.2485 31.8691C18.3912 31.7719 18.5832 31.6363 18.811 31.4727C19.2672 31.145 19.8688 30.7029 20.5073 30.2246L22.7876 28.5078L25.9282 28.4922L29.0962 28.4775H29.1128L29.1284 28.4727L29.5288 28.3369C30.344 28.0583 30.9956 27.4848 31.3579 26.7295L31.4409 26.5459C31.495 26.4173 31.5447 26.2829 31.5786 26.1729L31.6167 26.0303V26.0293C31.6274 25.9744 31.6354 25.8352 31.6421 25.623C31.6489 25.4062 31.654 25.1029 31.6587 24.7109C31.6681 23.9265 31.6733 22.7846 31.6733 21.2656C31.6733 18.8109 31.677 17.6329 31.6411 17.0508C31.6235 16.7647 31.5958 16.6016 31.5405 16.501C31.4789 16.389 31.3814 16.3579 31.3188 16.3262C30.9585 16.1431 30.5249 16.2623 30.3218 16.6045L30.3188 16.6084C30.3087 16.6276 30.3041 16.6497 30.3013 16.6641C30.2979 16.6813 30.2951 16.7021 30.2925 16.7256C30.2873 16.7727 30.2821 16.8378 30.2778 16.9219C30.2692 17.0904 30.2619 17.3424 30.2554 17.6992C30.2422 18.4138 30.2322 19.5533 30.2222 21.2949L30.1968 25.8047L30.0962 26.0225L30.0288 26.1465C29.9517 26.2718 29.8464 26.401 29.7261 26.5195C29.5658 26.6774 29.384 26.8115 29.2144 26.8906H29.2134L28.9243 27.0273L25.6274 27.041L22.314 27.0566H22.2808L22.2544 27.0762L20.2866 28.5479L18.481 29.9023L18.4595 28.8115V28.8105C18.4495 28.3551 18.4388 28.023 18.4243 27.7949C18.4171 27.6811 18.4084 27.5914 18.3989 27.5244C18.3942 27.491 18.3895 27.4613 18.3833 27.4365C18.3776 27.4136 18.3692 27.3875 18.356 27.3652L18.355 27.3662C18.3199 27.3029 18.2825 27.2257 18.1841 27.1729C18.0937 27.1244 17.9599 27.0992 17.7446 27.083C17.308 27.0501 16.4647 27.0518 14.771 27.0518C13.0089 27.0518 12.1351 27.0509 11.6382 27.0088C11.3913 26.9879 11.2451 26.9571 11.1323 26.9141C11.0195 26.871 10.9344 26.8144 10.8081 26.7285C10.6996 26.655 10.5653 26.5286 10.4634 26.4092L10.3745 26.2939C10.2802 26.1565 10.2246 26.0898 10.1812 25.9609C10.1368 25.8294 10.1051 25.6309 10.0854 25.2412C10.0462 24.4633 10.0535 22.9647 10.061 19.8145L10.0757 14.1846L10.2124 13.8955V13.8945C10.2915 13.7248 10.4256 13.5422 10.5835 13.3818C10.7411 13.2219 10.9174 13.089 11.0786 13.0127L11.3003 12.9111L17.0093 12.8867C19.2285 12.8767 20.6677 12.8667 21.563 12.8535C22.0105 12.8469 22.3236 12.8396 22.5298 12.8311C22.6324 12.8268 22.7099 12.8215 22.7651 12.8164C22.7926 12.8139 22.8165 12.8118 22.8354 12.8086C22.8502 12.8061 22.8749 12.8011 22.896 12.79L22.9009 12.7871C23.243 12.5839 23.3622 12.1503 23.1792 11.79H23.1782C23.1488 11.7331 23.1223 11.6255 22.9956 11.5635C22.9379 11.5353 22.8616 11.5159 22.7603 11.501C22.6579 11.4859 22.5225 11.4745 22.3423 11.4658C21.622 11.4313 20.1365 11.4379 16.9985 11.4404C14.7663 11.4429 13.3201 11.448 12.4067 11.458C11.9504 11.463 11.626 11.4687 11.4028 11.4766C11.1839 11.4843 11.0528 11.4942 10.9907 11.5078H10.9888C10.0465 11.741 9.22095 12.4687 8.83643 13.3926L8.76514 13.5801L8.63037 13.9805L8.62549 13.9961V25.8906L8.62939 25.9053L8.73975 26.2549V26.2559C9.05476 27.2422 9.79393 27.9961 10.7886 28.3467H10.7905L11.146 28.4668L11.1606 28.4727H11.1772L14.1401 28.4922L17.0034 28.5078L17.019 30.0049C17.0265 30.7689 17.0315 31.1737 17.0474 31.4033C17.0553 31.5178 17.0665 31.5959 17.0845 31.6562C17.1038 31.7211 17.13 31.762 17.1587 31.8008L17.1606 31.8037C17.1983 31.8507 17.2536 31.8992 17.311 31.9404C17.3689 31.982 17.4356 32.021 17.4985 32.0449V32.0439C17.5817 32.0767 17.6503 32.0996 17.7261 32.0996Z" fill="white" stroke="white" stroke-width="0.2"/>
<path d="M15.9224 16.49C17.596 16.49 18.4292 16.4919 18.8696 16.4577C19.0887 16.4407 19.2252 16.4139 19.3228 16.3659C19.4255 16.3154 19.477 16.2437 19.5298 16.1765C19.6106 16.0737 19.6516 15.9374 19.6587 15.8015C19.6657 15.6646 19.6396 15.5183 19.5757 15.3933H19.5747C19.5395 15.325 19.504 15.2369 19.4077 15.1765C19.317 15.1197 19.1818 15.0911 18.9644 15.073C18.5235 15.0362 17.6609 15.0388 15.9028 15.0388H12.6528L12.4585 15.2331C12.3377 15.354 12.2594 15.4882 12.231 15.6325C12.2026 15.7772 12.226 15.9236 12.2935 16.0671L12.3599 16.1999C12.3861 16.2442 12.4189 16.2867 12.4653 16.322C12.5577 16.3921 12.6927 16.4278 12.9077 16.4499C13.3411 16.4944 14.1876 16.49 15.9224 16.49Z" fill="white" stroke="white" stroke-width="0.2"/>
<path d="M15.9224 20.0936C17.596 20.0936 18.4292 20.0956 18.8696 20.0614C19.0887 20.0444 19.2252 20.0176 19.3228 19.9696C19.4255 19.919 19.477 19.8473 19.5298 19.7802C19.6106 19.6774 19.6516 19.5411 19.6587 19.4052C19.6657 19.2682 19.6396 19.1219 19.5757 18.9969H19.5747C19.5395 18.9287 19.504 18.8405 19.4077 18.7802C19.317 18.7234 19.1818 18.6948 18.9644 18.6766C18.5235 18.6399 17.6609 18.6425 15.9028 18.6425H12.6528L12.4585 18.8368C12.3377 18.9576 12.2594 19.0919 12.231 19.2362C12.2026 19.3809 12.226 19.5273 12.2935 19.6708L12.3599 19.8036C12.3861 19.8479 12.4189 19.8904 12.4653 19.9257C12.5577 19.9957 12.6927 20.0315 12.9077 20.0536C13.3411 20.0981 14.1876 20.0936 15.9224 20.0936Z" fill="white" stroke="white" stroke-width="0.2"/>
<path d="M20.1265 23.6978C24.0861 23.6978 25.9662 23.7011 26.8833 23.6685C27.3375 23.6523 27.5698 23.6275 27.7026 23.5826C27.7744 23.5583 27.8225 23.5267 27.8608 23.4859C27.8785 23.4671 27.893 23.4477 27.9048 23.4312C27.9171 23.4139 27.926 23.3999 27.938 23.3843C28.0191 23.2814 28.0599 23.1445 28.0669 23.0083C28.0722 22.9055 28.0591 22.7979 28.0249 22.6978L27.9839 22.6011C27.9758 22.5855 27.9699 22.5704 27.9624 22.5523C27.9555 22.5355 27.9455 22.5133 27.9331 22.4917C27.9044 22.442 27.8628 22.4022 27.7935 22.3726C27.7295 22.3453 27.6411 22.3268 27.5181 22.312C27.3936 22.2971 27.2261 22.2857 26.9985 22.2769C26.0882 22.2418 24.1792 22.2466 20.1069 22.2466H12.6528L12.4585 22.4409C12.3377 22.5618 12.2594 22.6951 12.231 22.8394C12.2024 22.9843 12.2258 23.1312 12.2935 23.2749L12.2944 23.2769C12.3042 23.2968 12.3121 23.3158 12.3198 23.3365C12.327 23.3557 12.3356 23.3809 12.3462 23.4038C12.3705 23.4562 12.4068 23.5051 12.4761 23.5435C12.5395 23.5786 12.6261 23.6025 12.7456 23.6206C12.8666 23.6389 13.0303 23.6531 13.2534 23.6636C14.1444 23.7057 16.0352 23.6978 20.1265 23.6978Z" fill="white" stroke="white" stroke-width="0.2"/>
</svg>
