<svg width="24" height="24" viewBox="0 0 24 24" fill="none" xmlns="http://www.w3.org/2000/svg">
<path d="M6.5 10C8.433 10 10 8.433 10 6.5C10 4.567 8.433 3 6.5 3C4.567 3 3 4.567 3 6.5C3 8.433 4.567 10 6.5 10Z" stroke="white" stroke-width="1.5" stroke-miterlimit="10"/>
<path d="M17.4998 10C19.4328 10 20.9998 8.433 20.9998 6.5C20.9998 4.567 19.4328 3 17.4998 3C15.5668 3 13.9998 4.567 13.9998 6.5C13.9998 8.433 15.5668 10 17.4998 10Z" stroke="white" stroke-width="1.5" stroke-miterlimit="10"/>
<path d="M6.5 21C8.433 21 10 19.433 10 17.5C10 15.567 8.433 14 6.5 14C4.567 14 3 15.567 3 17.5C3 19.433 4.567 21 6.5 21Z" stroke="white" stroke-width="1.5" stroke-miterlimit="10"/>
<path d="M17.4998 21C19.4328 21 20.9998 19.433 20.9998 17.5C20.9998 15.567 19.4328 14 17.4998 14C15.5668 14 13.9998 15.567 13.9998 17.5C13.9998 19.433 15.5668 21 17.4998 21Z" stroke="white" stroke-width="1.5" stroke-miterlimit="10"/>
</svg>
