<svg width="24" height="24" viewBox="0 0 24 24" fill="none" xmlns="http://www.w3.org/2000/svg">
<path d="M12 13V19" stroke="white" stroke-width="2" stroke-miterlimit="10"/>
<path d="M20.4998 6.59998L13.4999 2.40002C13.0672 2.14038 12.5409 2 12 2C11.4591 2 10.9325 2.14038 10.4998 2.40002L3.49994 6.59998C3.0342 6.87942 2.65617 7.24176 2.39581 7.65833C2.13546 8.07489 2 8.53426 2 9V20C2 20.5304 2.26328 21.0391 2.73212 21.4142C3.20096 21.7893 3.83696 22 4.5 22H19.5C20.163 22 20.7987 21.7893 21.2676 21.4142C21.7364 21.0391 22 20.5304 22 20V9C22 8.53426 21.8642 8.07489 21.6039 7.65833C21.3435 7.24176 20.9655 6.87942 20.4998 6.59998V6.59998Z" stroke="white" stroke-width="2" stroke-miterlimit="10"/>
</svg>
