<svg width="23" height="26" viewBox="0 0 23 26" fill="none" xmlns="http://www.w3.org/2000/svg">
<path d="M3.36799 0.58733C2.05042 0.859932 0.914581 1.94465 0.585188 3.25087C0.511358 3.54619 0.5 4.73882 0.5 12.6499C0.5 20.544 0.511358 21.7593 0.585188 22.049C0.835072 23.0258 1.58472 23.9572 2.48772 24.3945C3.37367 24.8261 2.81143 24.8034 12.5456 24.8034C18.9006 24.8034 21.3029 24.7863 21.4619 24.7409C21.5811 24.7012 21.7686 24.5989 21.8821 24.5081C22.4444 24.0424 22.4671 23.1451 21.9276 22.6339C21.5641 22.2875 22.0979 22.3045 12.574 22.3045C4.23691 22.3045 3.86776 22.2989 3.64627 22.1966C3.19193 21.9922 2.88526 21.4299 2.97045 20.9472C3.04995 20.4815 3.46454 20.0726 3.95862 19.9761C4.1574 19.942 7.25255 19.9193 12.8522 19.9193H21.4392L21.689 19.7887C21.8424 19.7092 22.0128 19.5501 22.1207 19.3854L22.3081 19.1128V11.3494C22.3081 4.61955 22.2967 3.54051 22.2229 3.25087C21.973 2.27405 21.2177 1.33698 20.3204 0.905365C19.4344 0.473747 19.8717 0.496464 11.3643 0.502144C4.9752 0.507822 3.70306 0.51918 3.36799 0.58733ZM19.1618 3.10321C19.4401 3.22815 19.7127 3.54619 19.8036 3.8415C19.849 4.00052 19.866 5.90305 19.866 10.7701V17.4772H11.8073C4.27098 17.4772 3.46454 17.4886 3.04428 17.6249C2.94773 17.6533 2.94205 17.3069 2.94205 10.8553C2.94205 5.92576 2.95909 4.00052 3.00452 3.8415C3.09539 3.54619 3.36799 3.22815 3.64627 3.10321C3.86776 3.00098 4.20283 2.9953 11.404 2.9953C18.6052 2.9953 18.9403 3.00098 19.1618 3.10321Z" fill="white" stroke="#25272F"/>
<path d="M10.8362 5.49417C10.5522 5.64183 10.3421 5.88035 10.2399 6.16999C10.1717 6.36308 10.1547 6.69248 10.1547 7.71473V9.01526H8.79168C7.54793 9.01526 7.40595 9.02662 7.20718 9.12317C6.37234 9.54911 6.30419 10.7077 7.07656 11.2585L7.32645 11.4289L8.73488 11.446L10.149 11.463L10.166 12.8374C10.1831 14.1833 10.1888 14.2174 10.3251 14.4673C10.4046 14.6036 10.5806 14.7967 10.7112 14.8932C10.9384 15.0466 11.0009 15.0636 11.4041 15.0636C11.8073 15.0636 11.8698 15.0466 12.097 14.8932C12.2276 14.7967 12.4036 14.6036 12.4831 14.4673C12.6194 14.2174 12.6251 14.1833 12.6422 12.8374L12.6592 11.463L14.0733 11.446L15.4818 11.4289L15.7316 11.2585C16.4983 10.7133 16.4302 9.54911 15.601 9.12885C15.4022 9.02662 15.2659 9.01526 14.0165 9.01526H12.6535V7.73177C12.6535 6.931 12.6308 6.36308 12.5911 6.22678C12.5059 5.94282 12.2389 5.63047 11.9663 5.49417C11.6767 5.34651 11.1145 5.34651 10.8362 5.49417Z" fill="white"/>
</svg>
