<svg width="42" height="42" viewBox="0 0 42 42" fill="none" xmlns="http://www.w3.org/2000/svg">
<rect width="42" height="42" rx="14" fill="#343641"/>
<path d="M22.8999 14.6001V12.8001C22.8999 12.3227 22.7103 11.865 22.3727 11.5274C22.0351 11.1898 21.5773 11.0001 21.0999 11.0001H14.7999C14.3225 11.0001 13.8647 11.1898 13.5271 11.5274C13.1895 11.865 12.9999 12.3227 12.9999 12.8001L12.9999 27.2001C12.9999 27.6775 13.1895 28.1354 13.5271 28.4729C13.8647 28.8105 14.3225 29.0001 14.7999 29.0001H21.0999C21.5773 29.0001 22.0351 28.8105 22.3727 28.4729C22.7103 28.1354 22.8999 27.6775 22.8999 27.2001V25.4001" stroke="white" stroke-width="1.5" stroke-miterlimit="10"/>
<path d="M17.491 20.0001H31" stroke="white" stroke-width="1.5" stroke-miterlimit="10"/>
<path d="M26.4907 15.5001L30.9907 20.0001L26.4907 24.5001" stroke="white" stroke-width="1.5" stroke-linejoin="round"/>
</svg>
