<svg width="42" height="42" viewBox="0 0 42 42" fill="none" xmlns="http://www.w3.org/2000/svg">
<rect width="42" height="42" rx="14" fill="#343641"/>
<path d="M19.6547 8.81144C17.5285 9.04821 15.2839 9.98109 13.5555 11.3449C13.0677 11.7285 12.0591 12.7324 11.6518 13.2343C10.5437 14.6029 9.72452 16.2555 9.3078 17.9508C9.03788 19.0542 9 19.4093 9 20.8773C9 22.3453 9.03788 22.7004 9.3078 23.8038C9.62508 25.0871 10.2407 26.4983 10.9463 27.5543C12.3243 29.6189 14.3368 31.2668 16.5388 32.1429C18.0636 32.749 19.4037 33 21.099 33C23.1021 33 24.8211 32.6022 26.5163 31.7498C27.8044 31.1011 28.7941 30.3766 29.8122 29.3253C31.6732 27.4075 32.8239 25.0161 33.1507 22.3926C33.2454 21.6208 33.2454 20.1338 33.1507 19.362C32.8808 17.1979 31.9905 15.0669 30.6314 13.3338C30.2337 12.8271 28.9504 11.5722 28.4342 11.1839C26.72 9.90059 24.7074 9.08609 22.6144 8.82565C21.9656 8.74514 20.2987 8.73567 19.6547 8.81144ZM22.4723 10.2984C25.1194 10.6488 27.5487 11.9794 29.2534 14.0109C30.8966 15.9667 31.7537 18.3202 31.7537 20.8773C31.7537 23.0225 31.1665 24.9829 30.0064 26.7303C27.9843 29.7752 24.7074 31.5415 21.0801 31.5368C18.2104 31.532 15.6059 30.4476 13.5697 28.4066C11.5192 26.3609 10.4443 23.7659 10.4443 20.8773C10.4443 18.9074 10.9321 17.1079 11.9123 15.4647C14.1095 11.7711 18.2578 9.74432 22.4723 10.2984Z" fill="white"/>
<path d="M20.7007 12.2067C20.4024 12.4056 20.3882 12.4672 20.3882 13.5374C20.3882 14.4087 20.3977 14.5223 20.4782 14.6455C20.625 14.8633 20.8049 14.958 21.0985 14.958C21.3921 14.958 21.572 14.8633 21.7188 14.6455C21.7993 14.5223 21.8088 14.4087 21.8088 13.5374C21.8088 12.6661 21.7993 12.5524 21.7188 12.4293C21.572 12.2115 21.3921 12.1168 21.0985 12.1168C20.9233 12.1168 20.7954 12.1452 20.7007 12.2067Z" fill="white"/>
<path d="M16.7563 13.2487C16.4911 13.3718 16.3633 13.5849 16.3633 13.9069C16.3633 14.139 16.3964 14.2195 16.7516 14.8303C16.9599 15.1997 17.1825 15.5548 17.2346 15.6117C17.5329 15.9479 18.0302 15.9432 18.3522 15.6022C18.4421 15.5028 18.4705 15.4128 18.4848 15.1807L18.499 14.8872L18.0586 14.1295C17.5898 13.3292 17.4998 13.2345 17.1446 13.1824C17.012 13.1635 16.8984 13.1824 16.7563 13.2487Z" fill="white"/>
<path d="M13.7063 16.2508C13.5027 16.3882 13.3559 16.7291 13.3985 16.9517C13.4601 17.2831 13.5737 17.3873 14.3551 17.8419L15.108 18.2776L15.4016 18.2634C15.6336 18.2492 15.7236 18.2208 15.823 18.1308C16.164 17.8088 16.1687 17.3116 15.8325 17.0132C15.7757 16.9611 15.4205 16.7386 15.0512 16.5302C14.4356 16.1751 14.3598 16.1419 14.123 16.1419C13.9336 16.1419 13.8247 16.1703 13.7063 16.2508Z" fill="white"/>
<path d="M20.1335 16.4544C18.5234 16.8001 17.1928 18.0598 16.7334 19.6698C16.6387 20.0013 16.6245 20.1575 16.6245 20.8773C16.6245 21.5971 16.6387 21.7534 16.7334 22.0849C17.0838 23.3066 17.9788 24.3815 19.0869 24.9214C19.7594 25.2481 20.1145 25.3334 20.9148 25.3618C21.7293 25.3902 22.165 25.3239 22.8184 25.0587L23.2352 24.893L23.5761 25.0303C24.2343 25.305 24.5043 25.3523 25.3851 25.3523C26.0859 25.3523 26.2374 25.3381 26.5689 25.2434C28.089 24.803 29.287 23.6049 29.7274 22.0849C29.8221 21.7534 29.8364 21.6019 29.8364 20.8773C29.8364 20.1528 29.8221 20.0013 29.7274 19.6698C29.287 18.1497 28.089 16.9517 26.5689 16.5113C26.2374 16.4166 26.0859 16.4024 25.3851 16.4024C24.5043 16.4024 24.2343 16.4497 23.5761 16.7244L23.2352 16.8617L22.8184 16.6959C22.5911 16.6012 22.236 16.4923 22.0371 16.4544C21.5778 16.3597 20.5786 16.3597 20.1335 16.4544ZM21.8572 17.9177C21.8808 17.9319 21.8051 18.0787 21.6867 18.235C21.412 18.6091 21.1326 19.1868 20.9953 19.6698C20.9006 20.0013 20.8864 20.1528 20.8864 20.8773C20.8864 21.6019 20.9006 21.7534 20.9953 22.0849C21.1326 22.5679 21.412 23.1456 21.6867 23.5197L21.8998 23.8086L21.7104 23.8606C21.4357 23.9364 20.697 23.9222 20.3655 23.837C19.8162 23.6949 19.4042 23.4534 18.9685 23.013C18.3293 22.3737 18.0688 21.7534 18.0688 20.8773C18.0688 20.6264 18.102 20.2949 18.1398 20.1433C18.4429 18.9453 19.5463 17.9792 20.7443 17.8561C21.0616 17.823 21.7672 17.8656 21.8572 17.9177ZM26.0954 17.9224C26.6163 18.0455 27.0519 18.3013 27.4971 18.7464C28.1316 19.3715 28.392 19.9965 28.392 20.8773C28.392 21.7486 28.1316 22.369 27.4923 23.013C26.8625 23.6428 26.2327 23.9127 25.3614 23.9127C24.4901 23.9127 23.8555 23.6428 23.2304 23.013C22.5911 22.3737 22.3307 21.7534 22.3307 20.8773C22.3307 20.0534 22.5911 19.3951 23.1547 18.8032C23.9407 17.9745 24.992 17.662 26.0954 17.9224Z" fill="white"/>
<path d="M12.6514 20.257C12.4336 20.4038 12.3389 20.5837 12.3389 20.8773C12.3389 21.1709 12.4336 21.3509 12.6514 21.4977C12.7745 21.5782 12.8882 21.5876 13.7595 21.5876C14.6308 21.5876 14.7445 21.5782 14.8676 21.4977C15.0854 21.3509 15.1801 21.1709 15.1801 20.8773C15.1801 20.5837 15.0854 20.4038 14.8676 20.257C14.7445 20.1765 14.6308 20.167 13.7595 20.167C12.8882 20.167 12.7745 20.1765 12.6514 20.257Z" fill="white"/>
<path d="M14.3551 23.9127C13.5737 24.3673 13.4601 24.4715 13.3985 24.803C13.3559 25.0303 13.5027 25.3665 13.711 25.5086C13.8531 25.6033 13.9194 25.6175 14.1609 25.6033C14.4119 25.5843 14.5161 25.5417 15.0843 25.2102C15.4347 25.0066 15.7757 24.7935 15.8325 24.7414C16.1687 24.4431 16.164 23.9459 15.823 23.6239C15.7236 23.5339 15.6336 23.5055 15.4016 23.4913L15.108 23.4771L14.3551 23.9127Z" fill="white"/>
<path d="M17.4288 25.9869C17.2251 26.1101 17.1825 26.1716 16.7516 26.9246C16.3964 27.5354 16.3633 27.6159 16.3633 27.848C16.3633 28.1794 16.4864 28.3831 16.7705 28.5062C16.9221 28.5772 17.0357 28.5962 17.1636 28.5725C17.5045 28.5157 17.604 28.4115 18.0633 27.6207L18.499 26.8677L18.4848 26.5741C18.4658 26.2569 18.3664 26.1006 18.1059 25.9633C17.926 25.8686 17.5992 25.8828 17.4288 25.9869Z" fill="white"/>
<path d="M20.7007 26.8866C20.4024 27.0855 20.3882 27.147 20.3882 28.2173C20.3882 29.0886 20.3977 29.2022 20.4782 29.3253C20.625 29.5432 20.8049 29.6379 21.0985 29.6379C21.3921 29.6379 21.572 29.5432 21.7188 29.3253C21.7993 29.2022 21.8088 29.0886 21.8088 28.2173C21.8088 27.3459 21.7993 27.2323 21.7188 27.1092C21.572 26.8913 21.3921 26.7966 21.0985 26.7966C20.9233 26.7966 20.7954 26.825 20.7007 26.8866Z" fill="white"/>
</svg>
