<svg width="42" height="42" viewBox="0 0 42 42" fill="none" xmlns="http://www.w3.org/2000/svg">
<rect width="42" height="42" rx="14" fill="#343641"/>
<path d="M14.9583 19.1667C16.7302 19.1667 18.1667 17.7302 18.1667 15.9583C18.1667 14.1864 16.7302 12.75 14.9583 12.75C13.1864 12.75 11.75 14.1864 11.75 15.9583C11.75 17.7302 13.1864 19.1667 14.9583 19.1667Z" stroke="white" stroke-width="1.5" stroke-miterlimit="10"/>
<path d="M25.0413 19.1667C26.8133 19.1667 28.2497 17.7302 28.2497 15.9583C28.2497 14.1864 26.8133 12.75 25.0413 12.75C23.2694 12.75 21.833 14.1864 21.833 15.9583C21.833 17.7302 23.2694 19.1667 25.0413 19.1667Z" stroke="white" stroke-width="1.5" stroke-miterlimit="10"/>
<path d="M14.9583 29.25C16.7302 29.25 18.1667 27.8136 18.1667 26.0417C18.1667 24.2697 16.7302 22.8333 14.9583 22.8333C13.1864 22.8333 11.75 24.2697 11.75 26.0417C11.75 27.8136 13.1864 29.25 14.9583 29.25Z" stroke="white" stroke-width="1.5" stroke-miterlimit="10"/>
<path d="M25.0413 29.25C26.8133 29.25 28.2497 27.8136 28.2497 26.0417C28.2497 24.2697 26.8133 22.8333 25.0413 22.8333C23.2694 22.8333 21.833 24.2697 21.833 26.0417C21.833 27.8136 23.2694 29.25 25.0413 29.25Z" stroke="white" stroke-width="1.5" stroke-miterlimit="10"/>
</svg>
