<svg width="17" height="17" viewBox="0 0 17 17" fill="none" xmlns="http://www.w3.org/2000/svg">
<path fill-rule="evenodd" clip-rule="evenodd" d="M9.98695 1.69371C11.0646 0.616012 12.8119 0.616012 13.8896 1.69371C14.9673 2.77141 14.9673 4.5187 13.8896 5.5964L8.51054 10.9755C8.20738 11.2787 8.02224 11.4639 7.81588 11.6248C7.57276 11.8144 7.30971 11.977 7.03137 12.1097C6.79513 12.2223 6.54671 12.305 6.13994 12.4406L4.24681 13.0717L3.7923 13.2232C3.38547 13.3588 2.93694 13.2529 2.6337 12.9496C2.33047 12.6464 2.22458 12.1979 2.36019 11.791L3.14274 9.44341C3.2783 9.03664 3.36109 8.78822 3.47368 8.55198C3.60633 8.27364 3.76891 8.01059 3.95854 7.76746C4.11949 7.56111 4.30466 7.37596 4.60786 7.07279L9.98695 1.69371ZM4.2223 11.9598L3.6235 11.361L4.13947 9.81315C4.28969 9.36247 4.35174 9.17923 4.43283 9.00909C4.53228 8.80041 4.65416 8.6032 4.79633 8.42092C4.91225 8.27231 5.0484 8.13486 5.38431 7.79895L9.55709 3.62617C9.72933 4.05825 10.0207 4.57974 10.5122 5.07117C11.0036 5.5626 11.5251 5.85402 11.9572 6.02626L7.7844 10.199C7.44849 10.5349 7.31104 10.6711 7.16243 10.787C6.98015 10.9292 6.78293 11.0511 6.57426 11.1505C6.40412 11.2316 6.22088 11.2937 5.7702 11.4439L4.2223 11.9598ZM12.8038 5.17964C12.7161 5.16039 12.6064 5.13141 12.4817 5.08815C12.1389 4.96921 11.6879 4.74428 11.2635 4.31987C10.8391 3.89545 10.6141 3.44447 10.4952 3.10162C10.4519 2.97693 10.423 2.86726 10.4037 2.77955L10.7382 2.44501C11.401 1.78225 12.4756 1.78225 13.1383 2.44501C13.8011 3.10778 13.8011 4.18234 13.1383 4.8451L12.8038 5.17964ZM2.30208 15.5834C2.30208 15.29 2.53993 15.0521 2.83333 15.0521H14.1667V16.1146H2.83333C2.53993 16.1146 2.30208 15.8768 2.30208 15.5834Z" fill="white"/>
</svg>
