<svg width="42" height="42" viewBox="0 0 42 42" fill="none" xmlns="http://www.w3.org/2000/svg">
<rect width="42" height="42" rx="14" fill="#343641"/>
<path d="M26.4998 18.25H15.4998C14.4873 18.25 13.6665 19.0708 13.6665 20.0833V28.3333C13.6665 29.3459 14.4873 30.1667 15.4998 30.1667H26.4998C27.5124 30.1667 28.3332 29.3459 28.3332 28.3333V20.0833C28.3332 19.0708 27.5124 18.25 26.4998 18.25Z" stroke="white" stroke-width="2" stroke-miterlimit="10"/>
<path d="M21 21.4583V26.9583" stroke="white" stroke-width="2" stroke-miterlimit="10"/>
<path d="M17.3335 17.3333V15.5C17.3335 14.5275 17.7196 13.595 18.4073 12.9073C19.0949 12.2197 20.0277 11.8333 21.0002 11.8333C21.9726 11.8333 22.9052 12.2197 23.5928 12.9073C24.2805 13.595 24.6668 14.5275 24.6668 15.5V17.3333" stroke="white" stroke-width="2" stroke-miterlimit="10"/>
</svg>
