<svg width="42" height="42" viewBox="0 0 42 42" fill="none" xmlns="http://www.w3.org/2000/svg">
<rect width="42" height="42" rx="14" fill="#343641"/>
<path d="M30.1665 15.5C30.1665 16.2293 29.8766 16.9288 29.3608 17.4446C28.8451 17.9603 28.1458 18.25 27.4165 18.25C26.6872 18.25 25.9877 17.9603 25.4719 17.4446C24.9562 16.9288 24.6665 16.2293 24.6665 15.5C24.6665 14.7707 24.9562 14.0712 25.4719 13.5554C25.9877 13.0397 26.6872 12.75 27.4165 12.75C28.1458 12.75 28.8451 13.0397 29.3608 13.5554C29.8766 14.0712 30.1665 14.7707 30.1665 15.5Z" stroke="white" stroke-width="1.5" stroke-miterlimit="10"/>
<path d="M17.0396 19.7716L24.9596 16.7283" stroke="white" stroke-width="1.5" stroke-miterlimit="10"/>
<path d="M17.3335 21C17.3335 21.7293 17.0436 22.4288 16.5278 22.9446C16.0121 23.4603 15.3128 23.75 14.5835 23.75C13.8542 23.75 13.1547 23.4603 12.6389 22.9446C12.1232 22.4288 11.8335 21.7293 11.8335 21C11.8335 20.2707 12.1232 19.5712 12.6389 19.0554C13.1547 18.5397 13.8542 18.25 14.5835 18.25C15.3128 18.25 16.0121 18.5397 16.5278 19.0554C17.0436 19.5712 17.3335 20.2707 17.3335 21Z" stroke="white" stroke-width="1.5" stroke-miterlimit="10"/>
<path d="M30.1665 26.5C30.1665 27.2293 29.8766 27.9288 29.3608 28.4446C28.8451 28.9603 28.1458 29.25 27.4165 29.25C26.6872 29.25 25.9877 28.9603 25.4719 28.4446C24.9562 27.9288 24.6665 27.2293 24.6665 26.5C24.6665 25.7707 24.9562 25.0712 25.4719 24.5554C25.9877 24.0397 26.6872 23.75 27.4165 23.75C28.1458 23.75 28.8451 24.0397 29.3608 24.5554C29.8766 25.0712 30.1665 25.7707 30.1665 26.5Z" stroke="white" stroke-width="1.5" stroke-miterlimit="10"/>
<path d="M24.9602 25.2717L17.3335 22.375" stroke="white" stroke-width="1.5" stroke-miterlimit="10"/>
</svg>
