<svg width="22" height="22" viewBox="0 0 22 22" fill="none" xmlns="http://www.w3.org/2000/svg">
<path d="M20.1665 5.5C20.1665 6.22935 19.8766 6.92883 19.3608 7.44456C18.8451 7.96028 18.1458 8.25 17.4165 8.25C16.6872 8.25 15.9877 7.96028 15.4719 7.44456C14.9562 6.92883 14.6665 6.22935 14.6665 5.5C14.6665 4.77065 14.9562 4.07117 15.4719 3.55544C15.9877 3.03972 16.6872 2.75 17.4165 2.75C18.1458 2.75 18.8451 3.03972 19.3608 3.55544C19.8766 4.07117 20.1665 4.77065 20.1665 5.5Z" stroke="white" stroke-width="1.5" stroke-miterlimit="10"/>
<path d="M7.03955 9.77161L14.9596 6.72827" stroke="white" stroke-width="1.5" stroke-miterlimit="10"/>
<path d="M7.3335 11C7.3335 11.7293 7.04356 12.4288 6.52783 12.9446C6.01211 13.4603 5.31284 13.75 4.5835 13.75C3.85415 13.75 3.15466 13.4603 2.63894 12.9446C2.12321 12.4288 1.8335 11.7293 1.8335 11C1.8335 10.2707 2.12321 9.57117 2.63894 9.05544C3.15466 8.53972 3.85415 8.25 4.5835 8.25C5.31284 8.25 6.01211 8.53972 6.52783 9.05544C7.04356 9.57117 7.3335 10.2707 7.3335 11Z" stroke="white" stroke-width="1.5" stroke-miterlimit="10"/>
<path d="M20.1665 16.5C20.1665 17.2293 19.8766 17.9288 19.3608 18.4446C18.8451 18.9603 18.1458 19.25 17.4165 19.25C16.6872 19.25 15.9877 18.9603 15.4719 18.4446C14.9562 17.9288 14.6665 17.2293 14.6665 16.5C14.6665 15.7707 14.9562 15.0712 15.4719 14.5554C15.9877 14.0397 16.6872 13.75 17.4165 13.75C18.1458 13.75 18.8451 14.0397 19.3608 14.5554C19.8766 15.0712 20.1665 15.7707 20.1665 16.5Z" stroke="white" stroke-width="1.5" stroke-miterlimit="10"/>
<path d="M14.9602 15.2717L7.3335 12.375" stroke="white" stroke-width="1.5" stroke-miterlimit="10"/>
</svg>
