<svg width="28" height="28" viewBox="0 0 28 28" fill="none" xmlns="http://www.w3.org/2000/svg">
<rect x="0.9" y="0.9" width="26.2" height="26.2" rx="2.56667" stroke="white" stroke-width="1.8"/>
<path d="M6.53418 11.1176C6.75706 11.1176 6.99563 11.1362 7.16113 11.1811L7.16016 11.1821C7.96912 11.3954 8.58767 12.007 8.86914 12.8364C8.93657 13.029 8.95703 13.2319 8.95703 13.5385C8.95703 13.845 8.9375 14.048 8.87012 14.2407L8.86914 14.2397C8.58784 15.0695 7.96943 15.6815 7.16016 15.895L7.16113 15.8959C6.99439 15.9412 6.74602 15.9585 6.51562 15.9575C6.28461 15.9564 6.03704 15.9367 5.87012 15.892H5.86914C5.10058 15.6835 4.44465 15.0334 4.19824 14.2553L4.1543 14.0971C4.01959 13.5278 4.11876 12.8379 4.40137 12.3334V12.3325L4.52832 12.1362C4.85333 11.6896 5.3785 11.3225 5.90527 11.1821V11.1811C6.07216 11.1364 6.31108 11.1176 6.53418 11.1176ZM6.41992 12.6899C6.1674 12.7255 5.91494 12.8877 5.75 13.1889L5.74805 13.1918C5.71068 13.2588 5.68165 13.3869 5.68164 13.5395C5.68164 13.6537 5.69792 13.7566 5.72266 13.8315L5.75 13.8969L5.75098 13.8989C5.99025 14.3513 6.49474 14.5111 6.91992 14.2953L7.00781 14.2407C7.09546 14.1754 7.18244 14.0797 7.25391 13.9662C7.34966 13.8142 7.40039 13.6568 7.40039 13.5385C7.40037 13.4202 7.34889 13.2592 7.26074 13.1166L7.16016 12.9819C6.94413 12.7415 6.67158 12.6545 6.41992 12.6899Z" fill="white" stroke="#EE5776" stroke-width="0.433333"/>
<path d="M14.0017 11.1149C14.2423 11.1149 14.4948 11.1392 14.658 11.1872L14.8083 11.236C15.4994 11.4874 16.0491 12.0379 16.3035 12.7311L16.3533 12.8825L16.3542 12.8835C16.4022 13.0489 16.4226 13.2971 16.4236 13.529C16.4246 13.7614 16.406 14.0125 16.3591 14.1862C16.142 15.0097 15.4726 15.678 14.6492 15.8952C14.4687 15.9443 14.2095 15.9636 13.9695 15.9606C13.7314 15.9576 13.4756 15.9322 13.3054 15.8766V15.8776C12.5515 15.6357 11.9649 15.0745 11.699 14.3434L11.6501 14.195C11.6001 14.0235 11.5789 13.772 11.5789 13.5388C11.5789 13.3056 11.6002 13.055 11.6501 12.8835V12.8825C11.8916 12.0677 12.5335 11.4249 13.3455 11.1872C13.5086 11.1392 13.7611 11.1149 14.0017 11.1149ZM14.8494 13.5388C14.8493 12.6301 13.6013 12.3473 13.2097 13.2106C13.1714 13.2977 13.1499 13.4196 13.1541 13.5524C13.1582 13.6855 13.1875 13.8129 13.2341 13.9079L13.2771 13.985C13.5105 14.3572 13.9868 14.4979 14.3699 14.3063H14.3708C14.6799 14.1534 14.8494 13.8814 14.8494 13.5388Z" fill="white" stroke="#EE5776" stroke-width="0.433333"/>
<path d="M21.4709 11.1149C21.8193 11.1149 22.1283 11.1659 22.4152 11.2839C22.7021 11.4019 22.956 11.5825 23.2004 11.8288C23.4976 12.126 23.6888 12.4379 23.8068 12.8278L23.8537 13.0007V13.0016C23.949 13.4177 23.9204 14.0125 23.7746 14.4059V14.4069C23.5051 15.1323 22.8736 15.6972 22.1174 15.8962L22.1144 15.8972C21.9467 15.9391 21.6981 15.9567 21.467 15.9567C21.2368 15.9567 20.9903 15.939 20.8283 15.8962L20.8244 15.8952C20.5016 15.804 20.1561 15.619 19.8879 15.3903L19.7775 15.2897C18.7988 14.324 18.7835 12.7787 19.7531 11.8132V11.8122C20.2322 11.3374 20.7807 11.1149 21.4709 11.1149ZM21.8527 12.7673C21.5558 12.6231 21.2118 12.6653 20.9504 12.8796L20.8439 12.9821C20.6957 13.1468 20.6037 13.3808 20.6037 13.5388C20.6037 13.6903 20.6962 13.9288 20.8293 14.0817C21.1071 14.3983 21.4926 14.478 21.8508 14.3083C21.9052 14.2811 21.9847 14.2212 22.0666 14.1384C22.1485 14.0556 22.2177 13.966 22.256 13.8923L22.258 13.8884C22.2942 13.8216 22.3219 13.6921 22.3215 13.5378C22.321 13.3848 22.2929 13.2536 22.257 13.1843C22.1364 12.9604 22.0293 12.8541 21.8527 12.7673Z" fill="white" stroke="#EE5776" stroke-width="0.433333"/>
</svg>
